<svg width="36" height="36" viewBox="0 0 36 36" fill="none" xmlns="http://www.w3.org/2000/svg">
<rect y="0.5" width="35" height="35" rx="17.5" fill="url(#paint0_linear_9_3004)"/>
<g filter="url(#filter0_d_9_3004)">
<path d="M22.3706 5C22.3706 5 22.8719 9.67897 24.8246 11.6316C26.7772 13.5842 31.4561 14.0855 31.4561 14.0855C31.4561 14.0855 26.7772 14.5868 24.8246 16.5394C22.8719 18.492 22.3706 23.171 22.3706 23.171C22.3706 23.171 21.8694 18.492 19.9167 16.5394C17.9641 14.5868 13.2852 14.0855 13.2852 14.0855C13.2852 14.0855 17.9641 13.5842 19.9167 11.6316C21.8694 9.67897 22.3706 5 22.3706 5Z" fill="white"/>
</g>
<path d="M15.2462 19.3853C15.2462 19.3853 15.547 22.1926 16.7186 23.3642C17.8901 24.5358 20.6975 24.8365 20.6975 24.8365C20.6975 24.8365 17.8901 25.1373 16.7186 26.3089C15.547 27.4805 15.2462 30.2878 15.2462 30.2878C15.2462 30.2878 14.9454 27.4805 13.7739 26.3089C12.6023 25.1373 9.79492 24.8365 9.79492 24.8365C9.79492 24.8365 12.6023 24.5358 13.7739 23.3642C14.9454 22.1926 15.2462 19.3853 15.2462 19.3853Z" fill="white"/>
<path d="M8.6342 12.6719C8.6342 12.6719 8.83472 14.5435 9.61576 15.3245C10.3968 16.1056 12.2684 16.3061 12.2684 16.3061C12.2684 16.3061 10.3968 16.5066 9.61576 17.2876C8.83472 18.0687 8.6342 19.9403 8.6342 19.9403C8.6342 19.9403 8.43368 18.0687 7.65263 17.2876C6.87159 16.5066 5 16.3061 5 16.3061C5 16.3061 6.87159 16.1056 7.65263 15.3245C8.43368 14.5435 8.6342 12.6719 8.6342 12.6719Z" fill="white"/>
<defs>
<filter id="filter0_d_9_3004" x="9.28516" y="5" width="26.1709" height="26.1709" filterUnits="userSpaceOnUse" color-interpolation-filters="sRGB">
<feFlood flood-opacity="0" result="BackgroundImageFix"/>
<feColorMatrix in="SourceAlpha" type="matrix" values="0 0 0 0 0 0 0 0 0 0 0 0 0 0 0 0 0 0 127 0" result="hardAlpha"/>
<feOffset dy="4"/>
<feGaussianBlur stdDeviation="2"/>
<feComposite in2="hardAlpha" operator="out"/>
<feColorMatrix type="matrix" values="0 0 0 0 0.799476 0 0 0 0 0.554391 0 0 0 0 1 0 0 0 0.12 0"/>
<feBlend mode="normal" in2="BackgroundImageFix" result="effect1_dropShadow_9_3004"/>
<feBlend mode="normal" in="SourceGraphic" in2="effect1_dropShadow_9_3004" result="shape"/>
</filter>
<linearGradient id="paint0_linear_9_3004" x1="36.5" y1="26" x2="-3.5" y2="8" gradientUnits="userSpaceOnUse">
<stop stop-color="#775FFF"/>
<stop offset="0.399036" stop-color="#DD35FF"/>
<stop offset="1" stop-color="#00E9ED"/>
</linearGradient>
</defs>
</svg>
